{
    "asset" : {
        "generator" : "Khronos glTF Blender I/O v1.2.75",
        "version" : "2.0"
    },
    "scene" : 0,
    "scenes" : [
        {
            "name" : "Scene",
            "nodes" : [
                0,
                1,
                2
            ]
        }
    ],
    "nodes" : [
        {
            "mesh" : 0,
            "name" : "Cube"
        },
        {
            "name" : "Light",
            "rotation" : [
                0.16907575726509094,
                0.7558803558349609,
                -0.27217137813568115,
                0.570947527885437
            ],
            "translation" : [
                4.076245307922363,
                5.903861999511719,
                -1.0054539442062378
            ]
        },
        {
            "name" : "Camera",
            "rotation" : [
                0.483536034822464,
                0.33687159419059753,
                -0.20870360732078552,
                0.7804827094078064
            ],
            "translation" : [
                7.358891487121582,
                4.958309173583984,
                6.925790786743164
            ]
        }
    ],
    "materials" : [
        {
            "doubleSided" : true,
            "emissiveFactor" : [
                0,
                0,
                0
            ],
            "name" : "Material",
            "pbrMetallicRoughness" : {
                "baseColorTexture" : {
                    "index" : 0,
                    "texCoord" : 0
                },
                "metallicFactor" : 0.6666666865348816,
                "roughnessFactor" : 0.17777779698371887
            }
        },
        {
            "doubleSided" : true,
            "emissiveFactor" : [
                0.3219635486602783,
                0.18152810633182526,
                1
            ],
            "name" : "Material.001",
            "pbrMetallicRoughness" : {}
        },
        {
            "doubleSided" : true,
            "emissiveFactor" : [
                0,
                0,
                0
            ],
            "name" : "Material.002",
            "pbrMetallicRoughness" : {
                "baseColorFactor" : [
                    0.1792982518672943,
                    0.19734498858451843,
                    0.8000000715255737,
                    1
                ],
                "metallicFactor" : 0,
                "roughnessFactor" : 0.25
            }
        },
        {
            "doubleSided" : true,
            "emissiveFactor" : [
                0,
                0,
                0
            ],
            "name" : "Material.003",
            "pbrMetallicRoughness" : {
                "baseColorFactor" : [
                    0.8000000715255737,
                    0.009501032531261444,
                    0.011330433189868927,
                    1
                ],
                "metallicFactor" : 0.5,
                "roughnessFactor" : 0.875
            }
        }
    ],
    "meshes" : [
        {
            "name" : "Cube",
            "primitives" : [
                {
                    "attributes" : {
                        "POSITION" : 0,
                        "NORMAL" : 1,
                        "TEXCOORD_0" : 2
                    },
                    "indices" : 3,
                    "material" : 0
                },
                {
                    "attributes" : {
                        "POSITION" : 4,
                        "NORMAL" : 5,
                        "TEXCOORD_0" : 6
                    },
                    "indices" : 7,
                    "material" : 1
                },
                {
                    "attributes" : {
                        "POSITION" : 8,
                        "NORMAL" : 9,
                        "TEXCOORD_0" : 10
                    },
                    "indices" : 11,
                    "material" : 2
                },
                {
                    "attributes" : {
                        "POSITION" : 12,
                        "NORMAL" : 13,
                        "TEXCOORD_0" : 14
                    },
                    "indices" : 15,
                    "material" : 3
                }
            ]
        }
    ],
    "textures" : [
        {
            "source" : 0
        }
    ],
    "images" : [
        {
            "bufferView" : 4,
            "mimeType" : "image/png",
            "name" : "Material Base Color"
        }
    ],
    "accessors" : [
        {
            "bufferView" : 0,
            "componentType" : 5126,
            "count" : 1954,
            "max" : [
                3.1119463443756104,
                1.7561986446380615,
                3.551013231277466
            ],
            "min" : [
                -3.8114118576049805,
                -1.5596535205841064,
                -3.551013231277466
            ],
            "type" : "VEC3"
        },
        {
            "bufferView" : 1,
            "componentType" : 5126,
            "count" : 1954,
            "type" : "VEC3"
        },
        {
            "bufferView" : 2,
            "componentType" : 5126,
            "count" : 1954,
            "type" : "VEC2"
        },
        {
            "bufferView" : 3,
            "componentType" : 5123,
            "count" : 3087,
            "type" : "SCALAR"
        },
        {
            "bufferView" : 5,
            "componentType" : 5126,
            "count" : 103,
            "max" : [
                3.0109353065490723,
                0.39411213994026184,
                3.551013231277466
            ],
            "min" : [
                -3.8114118576049805,
                -1.4088822603225708,
                -3.551013231277466
            ],
            "type" : "VEC3"
        },
        {
            "bufferView" : 6,
            "componentType" : 5126,
            "count" : 103,
            "type" : "VEC3"
        },
        {
            "bufferView" : 7,
            "componentType" : 5126,
            "count" : 103,
            "type" : "VEC2"
        },
        {
            "bufferView" : 8,
            "componentType" : 5123,
            "count" : 204,
            "type" : "SCALAR"
        },
        {
            "bufferView" : 9,
            "componentType" : 5126,
            "count" : 64,
            "max" : [
                1,
                1.394972801208496,
                1
            ],
            "min" : [
                -1,
                0.5,
                -1
            ],
            "type" : "VEC3"
        },
        {
            "bufferView" : 10,
            "componentType" : 5126,
            "count" : 64,
            "type" : "VEC3"
        },
        {
            "bufferView" : 11,
            "componentType" : 5126,
            "count" : 64,
            "type" : "VEC2"
        },
        {
            "bufferView" : 12,
            "componentType" : 5123,
            "count" : 96,
            "type" : "SCALAR"
        },
        {
            "bufferView" : 13,
            "componentType" : 5126,
            "count" : 32,
            "max" : [
                0.9171041250228882,
                1.25838041305542,
                1.1136329174041748
            ],
            "min" : [
                -1.1226025819778442,
                0.6323822736740112,
                -1.1136329174041748
            ],
            "type" : "VEC3"
        },
        {
            "bufferView" : 14,
            "componentType" : 5126,
            "count" : 32,
            "type" : "VEC3"
        },
        {
            "bufferView" : 15,
            "componentType" : 5126,
            "count" : 32,
            "type" : "VEC2"
        },
        {
            "bufferView" : 16,
            "componentType" : 5123,
            "count" : 48,
            "type" : "SCALAR"
        }
    ],
    "bufferViews" : [
        {
            "buffer" : 0,
            "byteLength" : 23448,
            "byteOffset" : 0
        },
        {
            "buffer" : 0,
            "byteLength" : 23448,
            "byteOffset" : 23448
        },
        {
            "buffer" : 0,
            "byteLength" : 15632,
            "byteOffset" : 46896
        },
        {
            "buffer" : 0,
            "byteLength" : 6174,
            "byteOffset" : 62528
        },
        {
            "buffer" : 0,
            "byteLength" : 20565,
            "byteOffset" : 68704
        },
        {
            "buffer" : 0,
            "byteLength" : 1236,
            "byteOffset" : 89272
        },
        {
            "buffer" : 0,
            "byteLength" : 1236,
            "byteOffset" : 90508
        },
        {
            "buffer" : 0,
            "byteLength" : 824,
            "byteOffset" : 91744
        },
        {
            "buffer" : 0,
            "byteLength" : 408,
            "byteOffset" : 92568
        },
        {
            "buffer" : 0,
            "byteLength" : 768,
            "byteOffset" : 92976
        },
        {
            "buffer" : 0,
            "byteLength" : 768,
            "byteOffset" : 93744
        },
        {
            "buffer" : 0,
            "byteLength" : 512,
            "byteOffset" : 94512
        },
        {
            "buffer" : 0,
            "byteLength" : 192,
            "byteOffset" : 95024
        },
        {
            "buffer" : 0,
            "byteLength" : 384,
            "byteOffset" : 95216
        },
        {
            "buffer" : 0,
            "byteLength" : 384,
            "byteOffset" : 95600
        },
        {
            "buffer" : 0,
            "byteLength" : 256,
            "byteOffset" : 95984
        },
        {
            "buffer" : 0,
            "byteLength" : 96,
            "byteOffset" : 96240
        }
    ],
    "buffers" : [
        {
            "byteLength" : 96336,
            "uri" : "data:application/octet-stream;base64,"
        }
    ]
}
